HIERARCHY
ROOT Root
{
  OFFSET 0.0 0.0 0.0
  CHANNELS 6 Xposition Yposition Zposition Zrotation Yrotation Xrotation
  JOINT Hips
  {
    OFFSET 0.0 100.0 0.0
    CHANNELS 6 Xposition Yposition Zposition Zrotation Yrotation Xrotation
    JOINT Spine1
    {
      OFFSET 5.003913 -0.037094 -0.013727
      CHANNELS 3 Zrotation Yrotation Xrotation
      JOINT Spine2
      {
        OFFSET 7.125363 -1e-06 0.0
        CHANNELS 3 Zrotation Yrotation Xrotation
        JOINT Chest
        {
          OFFSET 7.594027 1e-06 0.0
          CHANNELS 3 Zrotation Yrotation Xrotation
          JOINT Neck1
          {
            OFFSET 26.313086 -0.460272 -0.181672
            CHANNELS 3 Zrotation Yrotation Xrotation
            JOINT Neck2
            {
              OFFSET 8.045911 0.0 0.0
              CHANNELS 3 Zrotation Yrotation Xrotation
              JOINT Head
              {
                OFFSET 6.432774 0.0 0.0
                CHANNELS 3 Zrotation Yrotation Xrotation
                JOINT HeadEnd
                {
                  OFFSET 16.169773 0.06451 0.00362
                  CHANNELS 3 Zrotation Yrotation Xrotation
                }
                JOINT Jaw
                {
                  OFFSET 0.108741 3.12938 0.002639
                  CHANNELS 3 Zrotation Yrotation Xrotation
                }
                JOINT LeftEye
                {
                  OFFSET 4.45173 8.166359 3.206392
                  CHANNELS 3 Zrotation Yrotation Xrotation
                }
                JOINT RightEye
                {
                  OFFSET 4.436895 8.135758 -3.222429
                  CHANNELS 3 Zrotation Yrotation Xrotation
                }
              }
            }
          }
          JOINT LeftShoulder
          {
            OFFSET 23.218927 5.195579 1.621656
            CHANNELS 3 Zrotation Yrotation Xrotation
            JOINT LeftArm
            {
              OFFSET 15.902118 2e-06 -2e-06
              CHANNELS 3 Zrotation Yrotation Xrotation
              JOINT LeftForeArm
              {
                OFFSET 28.739307 0.0 -1e-06
                CHANNELS 3 Zrotation Yrotation Xrotation
                JOINT LeftHand
                {
                  OFFSET 27.093981 -4e-06 0.0
                  CHANNELS 3 Zrotation Yrotation Xrotation
                  JOINT LeftHandThumb1
                  {
                    OFFSET 2.276781 3.380274 0.83384
                    CHANNELS 3 Zrotation Yrotation Xrotation
                    JOINT LeftHandThumb2
                    {
                      OFFSET 4.705309 -1e-06 -1e-06
                      CHANNELS 3 Zrotation Yrotation Xrotation
                      JOINT LeftHandThumb3
                      {
                        OFFSET 2.798515 0.0 3e-06
                        CHANNELS 3 Zrotation Yrotation Xrotation
                        JOINT LeftHandThumbEnd
                        {
                          OFFSET 3.180793 4e-06 -4e-06
                          CHANNELS 3 Zrotation Yrotation Xrotation
                        }
                      }
                    }
                  }
                  JOINT LeftHandIndex1
                  {
                    OFFSET 3.247786 2.352677 0.137192
                    CHANNELS 3 Zrotation Yrotation Xrotation
                    JOINT LeftHandIndex2
                    {
                      OFFSET 6.367095 1e-06 0.0
                      CHANNELS 3 Zrotation Yrotation Xrotation
                      JOINT LeftHandIndex3
                      {
                        OFFSET 3.662364 0.0 0.0
                        CHANNELS 3 Zrotation Yrotation Xrotation
                        JOINT LeftHandIndex4
                        {
                          OFFSET 2.329242 4e-06 -4e-06
                          CHANNELS 3 Zrotation Yrotation Xrotation
                          JOINT LeftHandIndexEnd
                          {
                            OFFSET 2.767823 1e-06 0.0
                            CHANNELS 3 Zrotation Yrotation Xrotation
                          }
                        }
                      }
                    }
                  }
                  JOINT LeftHandMiddle1
                  {
                    OFFSET 3.163612 0.945023 -0.406112
                    CHANNELS 3 Zrotation Yrotation Xrotation
                    JOINT LeftHandMiddle2
                    {
                      OFFSET 6.276789 3e-06 0.0
                      CHANNELS 3 Zrotation Yrotation Xrotation
                      JOINT LeftHandMiddle3
                      {
                        OFFSET 4.35652 -1e-06 4e-06
                        CHANNELS 3 Zrotation Yrotation Xrotation
                        JOINT LeftHandMiddle4
                        {
                          OFFSET 2.996877 0.0 8e-06
                          CHANNELS 3 Zrotation Yrotation Xrotation
                          JOINT LeftHandMiddleEnd
                          {
                            OFFSET 2.323256 3e-06 -4e-06
                            CHANNELS 3 Zrotation Yrotation Xrotation
                          }
                        }
                      }
                    }
                  }
                  JOINT LeftHandRing1
                  {
                    OFFSET 2.882606 -0.309162 0.107445
                    CHANNELS 3 Zrotation Yrotation Xrotation
                    JOINT LeftHandRing2
                    {
                      OFFSET 6.033198 0.0 4e-06
                      CHANNELS 3 Zrotation Yrotation Xrotation
                      JOINT LeftHandRing3
                      {
                        OFFSET 4.350578 3e-06 0.0
                        CHANNELS 3 Zrotation Yrotation Xrotation
                        JOINT LeftHandRing4
                        {
                          OFFSET 2.651321 2e-06 -7e-06
                          CHANNELS 3 Zrotation Yrotation Xrotation
                          JOINT LeftHandRingEnd
                          {
                            OFFSET 1.937663 1e-06 -4e-06
                            CHANNELS 3 Zrotation Yrotation Xrotation
                          }
                        }
                      }
                    }
                  }
                  JOINT LeftHandPinky1
                  {
                    OFFSET 2.865315 -1.525436 0.575687
                    CHANNELS 3 Zrotation Yrotation Xrotation
                    JOINT LeftHandPinky2
                    {
                      OFFSET 5.54936 1e-06 -8e-06
                      CHANNELS 3 Zrotation Yrotation Xrotation
                      JOINT LeftHandPinky3
                      {
                        OFFSET 3.070974 0.0 -4e-06
                        CHANNELS 3 Zrotation Yrotation Xrotation
                        JOINT LeftHandPinky4
                        {
                          OFFSET 1.549672 1e-06 0.0
                          CHANNELS 3 Zrotation Yrotation Xrotation
                          JOINT LeftHandPinkyEnd
                          {
                            OFFSET 1.952123 0.0 0.0
                            CHANNELS 3 Zrotation Yrotation Xrotation
                          }
                        }
                      }
                    }
                  }
                }
              }
            }
          }
          JOINT RightShoulder
          {
            OFFSET 23.161716 5.296122 -1.380114
            CHANNELS 3 Zrotation Yrotation Xrotation
            JOINT RightArm
            {
              OFFSET -16.027195 -2e-06 1.1e-05
              CHANNELS 3 Zrotation Yrotation Xrotation
              JOINT RightForeArm
              {
                OFFSET -28.736639 4e-06 2e-06
                CHANNELS 3 Zrotation Yrotation Xrotation
                JOINT RightHand
                {
                  OFFSET -27.133619 6e-06 0.0
                  CHANNELS 3 Zrotation Yrotation Xrotation
                  JOINT RightHandThumb1
                  {
                    OFFSET -2.274328 -3.351035 -0.83067
                    CHANNELS 3 Zrotation Yrotation Xrotation
                    JOINT RightHandThumb2
                    {
                      OFFSET -4.703594 -3e-06 2e-06
                      CHANNELS 3 Zrotation Yrotation Xrotation
                      JOINT RightHandThumb3
                      {
                        OFFSET -2.794935 -4e-06 -3e-06
                        CHANNELS 3 Zrotation Yrotation Xrotation
                        JOINT RightHandThumbEnd
                        {
                          OFFSET -3.183852 4e-06 1e-06
                          CHANNELS 3 Zrotation Yrotation Xrotation
                        }
                      }
                    }
                  }
                  JOINT RightHandIndex1
                  {
                    OFFSET -3.253496 -2.33755 -0.127667
                    CHANNELS 3 Zrotation Yrotation Xrotation
                    JOINT RightHandIndex2
                    {
                      OFFSET -6.344434 0.0 0.0
                      CHANNELS 3 Zrotation Yrotation Xrotation
                      JOINT RightHandIndex3
                      {
                        OFFSET -3.654871 0.0 -8e-06
                        CHANNELS 3 Zrotation Yrotation Xrotation
                        JOINT RightHandIndex4
                        {
                          OFFSET -2.327586 -1e-06 0.0
                          CHANNELS 3 Zrotation Yrotation Xrotation
                          JOINT RightHandIndexEnd
                          {
                            OFFSET -2.770001 3e-06 8e-06
                            CHANNELS 3 Zrotation Yrotation Xrotation
                          }
                        }
                      }
                    }
                  }
                  JOINT RightHandMiddle1
                  {
                    OFFSET -3.168223 -0.944764 0.411762
                    CHANNELS 3 Zrotation Yrotation Xrotation
                    JOINT RightHandMiddle2
                    {
                      OFFSET -6.266691 -1e-06 -4e-06
                      CHANNELS 3 Zrotation Yrotation Xrotation
                      JOINT RightHandMiddle3
                      {
                        OFFSET -4.348901 0.0 0.0
                        CHANNELS 3 Zrotation Yrotation Xrotation
                        JOINT RightHandMiddle4
                        {
                          OFFSET -3.00024 2e-06 -4e-06
                          CHANNELS 3 Zrotation Yrotation Xrotation
                          JOINT RightHandMiddleEnd
                          {
                            OFFSET -2.321477 -4e-06 -4e-06
                            CHANNELS 3 Zrotation Yrotation Xrotation
                          }
                        }
                      }
                    }
                  }
                  JOINT RightHandRing1
                  {
                    OFFSET -2.885654 0.293261 -0.119232
                    CHANNELS 3 Zrotation Yrotation Xrotation
                    JOINT RightHandRing2
                    {
                      OFFSET -6.032835 -1e-06 -4e-06
                      CHANNELS 3 Zrotation Yrotation Xrotation
                      JOINT RightHandRing3
                      {
                        OFFSET -4.33881 0.0 -4e-06
                        CHANNELS 3 Zrotation Yrotation Xrotation
                        JOINT RightHandRing4
                        {
                          OFFSET -2.654903 -4e-06 -4e-06
                          CHANNELS 3 Zrotation Yrotation Xrotation
                          JOINT RightHandRingEnd
                          {
                            OFFSET -1.935122 0.0 4e-06
                            CHANNELS 3 Zrotation Yrotation Xrotation
                          }
                        }
                      }
                    }
                  }
                  JOINT RightHandPinky1
                  {
                    OFFSET -2.866241 1.503904 -0.60527
                    CHANNELS 3 Zrotation Yrotation Xrotation
                    JOINT RightHandPinky2
                    {
                      OFFSET -5.553177 -2e-06 0.0
                      CHANNELS 3 Zrotation Yrotation Xrotation
                      JOINT RightHandPinky3
                      {
                        OFFSET -3.062664 -1e-06 -4e-06
                        CHANNELS 3 Zrotation Yrotation Xrotation
                        JOINT RightHandPinky4
                        {
                          OFFSET -1.546529 2e-06 4e-06
                          CHANNELS 3 Zrotation Yrotation Xrotation
                          JOINT RightHandPinkyEnd
                          {
                            OFFSET -1.952341 0.0 -4e-06
                            CHANNELS 3 Zrotation Yrotation Xrotation
                          }
                        }
                      }
                    }
                  }
                }
              }
            }
          }
        }
      }
    }
    JOINT LeftLeg
    {
      OFFSET -8.443107 2.567604 10.043214
      CHANNELS 3 Zrotation Yrotation Xrotation
      JOINT LeftShin
      {
        OFFSET 43.229198 1e-06 -1e-06
        CHANNELS 3 Zrotation Yrotation Xrotation
        JOINT LeftFoot
        {
          OFFSET 42.298611 1e-06 1e-06
          CHANNELS 3 Zrotation Yrotation Xrotation
          JOINT LeftToeBase
          {
            OFFSET 14.165858 1e-06 0.0
            CHANNELS 3 Zrotation Yrotation Xrotation
            JOINT LeftToeEnd
            {
              OFFSET 6.7141 -0.234461 0.0
              CHANNELS 3 Zrotation Yrotation Xrotation
            }
          }
        }
      }
    }
    JOINT RightLeg
    {
      OFFSET -8.303923 2.592729 -10.047278
      CHANNELS 3 Zrotation Yrotation Xrotation
      JOINT RightShin
      {
        OFFSET -43.369682 0.0 1e-06
        CHANNELS 3 Zrotation Yrotation Xrotation
        JOINT RightFoot
        {
          OFFSET -42.260784 4e-06 2e-06
          CHANNELS 3 Zrotation Yrotation Xrotation
          JOINT RightToeBase
          {
            OFFSET -14.222245 -2e-06 -1e-06
            CHANNELS 3 Zrotation Yrotation Xrotation
            JOINT RightToeEnd
            {
              OFFSET -6.660062 0.232574 -2e-06
              CHANNELS 3 Zrotation Yrotation Xrotation
            }
          }
        }
      }
    }
  }
}
MOTION
Frames: 4
Frame Time: 0.03333333333333333
0.0 0.0 0.0 0.0 -0.0 0.0 4.308096 50.132465 163.706268 75.314987 -60.316208 105.357307 10.913775 0.19953 1.243656 -5.860152 -0.554504 0.474469 20.208979 0.670462 -0.632565 16.990898 -0.762123 4.226966 -2.750153 -0.299581 -0.537831 -27.341728 -1.03831 -1.493949 7e-06 1e-06 -0.0 -0.260514 -0.149664 0.08298 0.011413 -0.087864 0.126774 0.094664 -0.208769 0.035916 -15.681825 -60.296734 16.424442 96.270576 -7.390182 -36.119915 5.646485 -0.10032 0.108046 93.501808 77.933319 90.110924 17.636627 -26.322733 52.411201 -19.466665 -14.395598 29.410395 -2e-06 -8.774822 -2e-06 14.841827 -18.357601 5.891489 -0.609777 -1.795654 -3.889328 -4.807087 -11.046813 -2.937852 3e-06 -20.976021 -1e-06 -5.019969 -25.033564 -4.031883 6e-06 -1e-06 3e-06 -10.634534 -5.686972 -3.565588 10.573274 -17.922955 -3.113901 3e-06 -13.821211 0.0 -0.501776 -31.181511 -4.027017 -10.484522 -57.510036 5.797438 -13.982714 -7.150199 -2.875042 13.772729 -8.401494 -3.218243 0.347735 -34.211559 0.771653 -0.963029 -17.73337 2.62102 -0.0 -1e-06 0.0 -17.346418 -20.095222 -4.201784 21.757557 -1.638375 3.866427 1e-06 -6.338824 0.0 -1.697589 -22.591747 -6.194007 -0.0 -5e-06 -2e-06 176.437912 -73.344986 8.07435 61.909988 -5.572096 -58.290455 47.062809 -1.190661 -0.910968 23.890503 47.263393 33.149513 22.182106 -20.375887 49.933308 -16.701813 -16.743528 28.47653 -2e-06 -12.690601 -1e-06 16.409595 -18.362202 2.650901 -0.105919 -1.513856 -4.275881 -5.03904 -5.612869 -2.953555 4e-06 -11.020523 -3e-06 -6.111298 -15.89533 -3.840469 -1e-06 -0.0 1e-06 -10.283369 -5.680288 -4.341838 11.028294 -11.302404 -2.372634 -1.384267 -14.238579 -6.320123 -0.625439 -26.924187 -3.827601 -4.004737 -50.59552 -3.886171 -13.708522 -7.363475 -3.720938 18.141148 -14.052739 -3.242676 6e-06 -18.78727 -3e-06 -0.429714 -8.45604 2.555504 1e-06 -2e-06 -1e-06 -15.923532 -20.094482 -5.473583 30.41921 -7.190824 1.735926 4e-06 -8.162922 -1e-06 -1.8619 -22.861467 -6.167944 -1e-06 -3e-06 -1e-06 138.722397 -7.867369 1.391261 82.759209 -2.406239 0.49771 -38.858021 3.525158 -10.103244 -4.007229 1.256641 2.915882 -1.000003 0.0 -0.0 -61.45393 4.855807 -0.072579 103.015099 0.203622 -0.096223 -52.951702 20.463415 -1.50412 -9.663603 0.479986 1.404421 -1.000001 -0.0 -0.0 
0.0 0.0 0.0 0.0 -0.0 0.0 3.930489 50.300491 164.91925 76.437202 -60.683159 105.346199 11.115081 -0.058872 1.184456 -5.695545 -0.484135 0.679656 20.181622 -0.041208 -0.6562 17.339771 -0.786018 3.971474 -2.758345 -0.169802 -1.08032 -28.031458 -1.570599 -1.992326 6e-06 0.0 -0.0 -0.236297 -0.102139 0.068202 0.086383 -0.054176 0.133424 0.182727 -0.150095 0.001409 -15.623071 -61.01083 16.231625 96.981445 -6.951078 -34.861153 5.635078 -0.043551 0.100054 96.353729 77.616028 93.762314 17.636629 -26.322729 52.41119 -19.46666 -14.395598 29.410385 -1e-06 -8.774821 -2e-06 14.942372 -18.335758 5.815838 -0.609776 -1.795653 -3.889327 -4.80709 -11.046811 -2.93785 4e-06 -20.976019 -1e-06 -5.019971 -25.033556 -4.031882 6e-06 -1e-06 0.0 -10.634536 -5.68697 -3.565587 10.573275 -17.922947 -3.1139 3e-06 -13.821206 1e-06 -0.501778 -31.181505 -4.027015 -10.333136 -57.349533 5.696815 -13.982716 -7.150198 -2.875041 13.772732 -8.401492 -3.218241 0.347735 -34.211555 0.771654 -0.963028 -17.73337 2.62102 -1e-06 -0.0 0.0 -17.346422 -20.095217 -4.20178 21.757559 -1.638375 3.866428 1e-06 -6.338824 1e-06 -1.697588 -22.591738 -6.194006 0.0 -6e-06 -2e-06 177.233047 -71.542549 6.643164 59.653 -0.054495 -61.051559 40.663116 -1.37021 -0.740023 17.311892 44.611069 25.152328 22.182117 -20.375896 49.933323 -16.701817 -16.74353 28.476534 -2e-06 -12.690603 1e-06 16.47312 -18.259144 2.573476 -0.105919 -1.513856 -4.275883 -5.039041 -5.612872 -2.953556 5e-06 -11.020525 -3e-06 -6.1113 -15.895338 -3.840472 0.0 1e-06 1e-06 -10.283371 -5.680288 -4.341839 11.028297 -11.302407 -2.372633 -1.384268 -14.238579 -6.320122 -0.625439 -26.924194 -3.8276 -3.85336 -50.549957 -3.864825 -13.708526 -7.363477 -3.72094 18.141153 -14.052741 -3.242676 6e-06 -18.787271 -1e-06 -0.42971 -8.456045 2.555503 1e-06 0.0 -0.0 -15.923536 -20.094484 -5.473585 30.419214 -7.190826 1.735926 4e-06 -8.162927 -0.0 -1.861903 -22.861473 -6.167943 0.0 -2e-06 -1e-06 132.700821 -7.792991 1.614108 91.124878 -2.089867 0.370017 -41.332359 1.757224 -9.848677 -4.201427 1.312497 2.965626 -1.000002 0.0 0.0 -60.200829 4.355329 0.501316 101.457283 0.580458 -0.084201 -52.651932 19.892193 -1.351319 -9.789066 0.476061 1.390938 -1.0 -0.0 -0.0 
0.0 0.0 0.0 0.0 -0.0 0.0 3.461206 50.404667 166.191513 77.565048 -60.988701 105.111404 11.275601 -0.326533 1.124665 -5.516227 -0.43661 0.94328 20.280573 -0.85234 -0.574432 17.629662 -0.503728 3.778298 -2.755148 -0.163965 -1.550701 -28.706402 -2.120542 -2.39559 7e-06 -1e-06 0.0 -0.216145 -0.056649 0.053271 0.146799 -0.021406 0.136058 0.253218 -0.095767 -0.028651 -16.056828 -61.895058 16.491142 97.597801 -6.566506 -33.465206 5.906044 -0.028007 0.084014 98.4412 77.328468 96.727371 17.636621 -26.322731 52.411209 -19.466665 -14.3956 29.410395 -1e-06 -8.774821 -1e-06 14.980237 -18.313969 5.812521 -0.609776 -1.795653 -3.889327 -4.807087 -11.046812 -2.937851 5e-06 -20.976019 -1e-06 -5.019969 -25.03356 -4.031882 6e-06 -1e-06 0.0 -10.634534 -5.686971 -3.565588 10.573275 -17.922951 -3.113903 3e-06 -13.821212 1e-06 -0.501775 -31.181505 -4.027018 -10.213055 -57.190144 5.673066 -13.982714 -7.150198 -2.875042 13.772728 -8.401491 -3.218243 0.347734 -34.211555 0.771653 -0.963029 -17.733368 2.62102 -0.0 -1e-06 0.0 -17.346416 -20.095217 -4.201783 21.757557 -1.638374 3.866426 1e-06 -6.338824 1e-06 -1.697589 -22.591743 -6.194008 -0.0 -4e-06 -2e-06 178.903168 -70.064644 4.680831 57.392475 5.175189 -62.083382 33.035183 -1.517103 -0.578775 11.543893 41.237373 17.229921 22.18211 -20.375893 49.933327 -16.701817 -16.743526 28.47654 -5e-06 -12.690601 1e-06 16.550436 -18.177286 2.429729 -0.105919 -1.513855 -4.275882 -5.039042 -5.612873 -2.953557 5e-06 -11.020523 -3e-06 -6.111298 -15.89533 -3.840474 -0.0 0.0 2e-06 -10.283369 -5.680288 -4.341838 11.028294 -11.302406 -2.372636 -1.384267 -14.238583 -6.320122 -0.625436 -26.924191 -3.827604 -3.719011 -50.451351 -3.835641 -13.708524 -7.363475 -3.720941 18.141148 -14.052738 -3.242677 6e-06 -18.78727 -3e-06 -0.429712 -8.456041 2.555504 1e-06 -0.0 -0.0 -15.923532 -20.094482 -5.473588 30.41921 -7.190824 1.735924 4e-06 -8.162926 -0.0 -1.861902 -22.861467 -6.167942 0.0 -1e-06 -1e-06 126.250122 -7.73242 1.795339 99.391434 -1.592357 0.272787 -43.825043 -0.096435 -9.544062 -4.39473 1.34877 3.00943 -1.000002 0.0 -0.0 -58.826447 4.093951 1.113455 99.869553 1.029522 -0.084487 -52.45472 19.003365 -1.099314 -9.648193 0.441129 1.391247 -1.000001 -1e-06 -0.0 
0.0 0.0 0.0 0.0 -0.0 0.0 2.894716 50.46661 167.53064 78.588783 -61.13932 104.675919 11.397915 -0.618311 1.101039 -5.341712 -0.46865 1.28445 20.590506 -1.681251 -0.394684 17.747564 0.011595 3.641135 -2.780616 -0.27703 -1.808309 -29.129925 -2.536922 -2.683765 6e-06 0.0 0.0 -0.205994 -0.036038 0.044948 0.156964 -0.010296 0.127404 0.260822 -0.069209 -0.03426 -17.07243 -62.984795 17.251394 98.13958 -6.26097 -32.002487 6.355519 -0.105352 0.050554 99.94725 77.048294 98.904533 17.636635 -26.322733 52.411179 -19.466656 -14.395598 29.410381 0.0 -8.774822 -3e-06 15.0121 -18.314157 5.863349 -0.609776 -1.795654 -3.889328 -4.807088 -11.046809 -2.937849 3e-06 -20.976019 1e-06 -5.019974 -25.03356 -4.031879 6e-06 -1e-06 1e-06 -10.634535 -5.68697 -3.565587 10.573275 -17.922949 -3.113899 2e-06 -13.821209 3e-06 -0.501779 -31.181501 -4.027015 -10.211253 -57.16399 5.779131 -13.982716 -7.150198 -2.875041 13.77273 -8.401492 -3.21824 0.347732 -34.211555 0.771658 -0.963029 -17.73337 2.621021 0.0 -0.0 -0.0 -17.346422 -20.095217 -4.20178 21.757563 -1.638374 3.86643 1e-06 -6.338824 1e-06 -1.69759 -22.591742 -6.194004 0.0 -3e-06 -2e-06 -178.599197 -68.99794 2.208628 55.278896 9.633098 -61.438114 25.425373 -1.625038 -0.395264 6.769956 37.411644 9.844642 22.182119 -20.375898 49.9333 -16.701809 -16.743528 28.476522 -3e-06 -12.6906 -0.0 16.579775 -18.103672 2.241113 -0.10592 -1.513857 -4.275881 -5.039041 -5.612871 -2.953555 6e-06 -11.020523 -1e-06 -6.111298 -15.89533 -3.84047 -0.0 -0.0 2e-06 -10.283371 -5.680285 -4.341838 11.028296 -11.302406 -2.372632 -1.384269 -14.23858 -6.320118 -0.62544 -26.924191 -3.827596 -3.617314 -50.221867 -3.83602 -13.708524 -7.363477 -3.720938 18.141148 -14.052739 -3.242672 7e-06 -18.787271 -1e-06 -0.429712 -8.456043 2.555505 -0.0 0.0 0.0 -15.923536 -20.094482 -5.473582 30.419218 -7.190827 1.735927 3e-06 -8.162929 -0.0 -1.861903 -22.861469 -6.16794 0.0 -2e-06 -1e-06 119.656982 -7.83271 2.048094 106.974396 -1.013038 0.245092 -46.159111 -1.755516 -8.952553 -4.455509 1.365579 3.033994 -1.000001 1e-06 1e-06 -57.24482 4.241427 1.761012 98.149765 1.510304 -0.151756 -52.186069 17.931057 -0.78706 -9.148718 0.372992 1.410954 -1.000001 -1e-06 -0.0 
